#define close_width 11
#define close_height 11
static unsigned char close_bits[] = {
 0xFC, 0x01, 0x02, 0x02, 0x01, 0x04, 0x89, 0x04, 0x51, 0x04, 0x21, 0x04,
 0x51, 0x04, 0x89, 0x04, 0x01, 0x04, 0x02, 0x02, 0xFC, 0x01 };
