#define max_width 11
#define max_height 11
static unsigned char max_bits[] = {
 0xFC, 0x01, 0x02, 0x02, 0x01, 0x04, 0xF9, 0x04, 0x89, 0x04, 0x89, 0x04,
 0x89, 0x04, 0xF9, 0x04, 0x01, 0x04, 0x02, 0x02, 0xFC, 0x01 };
