#define max_toggled_width 11
#define max_toggled_height 11
static unsigned char max_toggled_bits[] = {
 0xFC, 0x01, 0x02, 0x02, 0x01, 0x04, 0x79, 0x04, 0x49, 0x04, 0xE9, 0x04,
 0xB9, 0x04, 0xE1, 0x04, 0x01, 0x04, 0x02, 0x02, 0xFC, 0x01 };
